<svg height="33" viewBox="0 0 40 33" width="40" xmlns="http://www.w3.org/2000/svg"><path d="m35.9285714 8.28571429v1.07142857c0 10.85714284-8.2142857 23.35714284-23.2857143 23.35714284-4.6428571 0-8.99999996-1-12.57142853-3.3571428.64285714.0714285 1.28571429.1428571 1.92857143.1428571 3.85714286 0 7.42857143-1.6428571 10.1428571-3.8571429-3.57142853-.0714285-6.6428571-2.4285714-7.6428571-5.7142857.5.0714286 1 .1428572 1.5.1428572.71428571 0 1.5-.0714286 2.21428571-.2857143-3.71428571-.7142857-6.57142857-4.0714286-6.57142857-8.0714286v-.0714286c1.14285715.5714286 2.35714286 1 3.71428572 1-2.21428572-1.5-3.64285715-3.99999996-3.64285715-6.78571424 0-1.5.42857143-2.78571429 1.14285715-4 4 4.92857143 10.00000004 8 16.78571424 8.42857144-.1428571-.57142859-.1428571-1.2857143-.1428571-1.92857144 0-4.5 3.6428571-8.21428572 8.2142857-8.21428572 2.3571429 0 4.5 1 6 2.57142857 1.8571429-.35714285 3.6428572-1.07142857 5.1428572-2-.5714286 1.92857143-1.9285715 3.5-3.6428572 4.57142858 1.7142857-.21428572 3.2142857-.64285715 4.7142857-1.28571429-1.0714285 1.71428571-2.4285714 3.14285714-4 4.28571429z" fill="#55acee" transform=""/></svg>